<?xml version="1.0" encoding="UTF-8"?><svg xmlns="http://www.w3.org/2000/svg" xmlns:xlink="http://www.w3.org/1999/xlink" height="255.1" preserveAspectRatio="xMidYMid meet" version="1.0" viewBox="84.8 85.0 255.7 255.1" width="255.7" zoomAndPan="magnify"><g><g id="change1_1"><path d="M339.89,212.6c0,31.7-11.58,60.72-30.72,83.03c-6.17,7.19-13.14,13.69-20.74,19.34 c-21.24,15.83-47.57,25.19-76.09,25.19c-18.23,0-35.55-3.82-51.23-10.71c-8.88-3.89-17.22-8.76-24.9-14.48 c-7.59-5.67-14.54-12.15-20.71-19.33c-19.14-22.31-30.73-51.33-30.73-83.04c0-70.45,57.12-127.56,127.57-127.56 c48.34,0,90.4,26.9,112.04,66.55C334.27,169.71,339.89,190.5,339.89,212.6z" fill="#c8c4e3"/></g><g id="change2_1"><path d="M311.18,165.21c-16.98-9.05-33.74-18.55-50.94-27.18c-8.83-4.43-18.04-8.2-26.96-12.49l-4.76,10.09 l-9.66-0.14l-57.21,193.96c15.68,6.89,33,10.71,51.23,10.71c28.52,0,54.85-9.36,76.09-25.19c7.6-5.65,14.57-12.15,20.74-19.34 c19.14-22.31,30.72-51.33,30.72-83.03c0-12.12-1.7-23.84-4.86-34.95C327.38,173.65,319.25,169.52,311.18,165.21z" fill="#9492c7"/></g><g id="change3_3"><path d="M169.44,171.38c-1.27-1.39-3.22-2.05-4.32-0.14c-1.58,2.74-1.42,6.42-1.19,9.45 c0.19,2.45,0.49,4.91,1.13,7.3c0.55,2.06,1.31,4.9,3.15,6.18c0.42,0.29,0.99,0.58,1.52,0.69c0.29,0.06,2.05,0.09,1.45-0.67" fill="#aa7648"/></g><g id="change3_4"><path d="M255.09,171.38c1.27-1.39,3.22-2.05,4.32-0.14c1.58,2.74,1.42,6.42,1.19,9.45 c-0.19,2.45-0.49,4.91-1.13,7.3c-0.55,2.06-1.31,4.9-3.15,6.18c-0.42,0.29-0.99,0.58-1.52,0.69c-0.29,0.06-2.05,0.09-1.45-0.67" fill="#aa7648"/></g><g id="change4_1"><path d="M309.17,295.63c-6.17,7.19-13.13,13.69-20.74,19.34H136.22c-7.6-5.67-14.55-12.15-20.71-19.33 c5.78-14.73,18.03-26.48,33.83-31.3l26.3-10.1c10.16-3.34,9.7-8.96,9.7-19.66v-22.76h53.99v22.74c0,10.71,0.54,17.07,10.72,20.4 l25.33,9.35C291.17,269.15,303.41,280.9,309.17,295.63z" fill="#8b613a"/></g><g id="change5_1"><path d="M309.17,295.63c-23.39,27.26-58.09,44.53-96.83,44.53s-73.44-17.27-96.83-44.52 c5.78-14.73,18.03-26.48,33.83-31.3l26.3-10.1c2.96-0.98,5.02-2.15,6.45-3.58c5.17,4.76,28.11,25.67,31.66,25.72 s25.43-20.75,30.94-24.06c1.39,1.03,3.14,1.91,5.36,2.64l25.33,9.35C291.17,269.15,303.41,280.9,309.17,295.63z" fill="#ed6e4a"/></g><g id="change3_1"><path d="M255.31,166.74c-0.11-30.48-18.86-47.66-42.98-47.66c-0.01,0,0.01,0,0,0c-0.01,0,0.01,0,0,0 c-24.12,0-42.78,17.18-42.89,47.66c-0.05,13.9,0.43,23.05,1.84,33.14c4.39,31.36,33.26,40.15,41.05,40.15 c9.55,0,36.75-8.79,41.14-40.15C254.89,189.79,255.36,180.64,255.31,166.74z" fill="#aa7648"/></g><g id="change3_2"><path d="M255.31,166.74c-0.11-30.48-18.86-47.66-42.98-47.66c-0.01,0,0.01,0,0,0c-0.01,0,0.01,0,0,0 c-24.12,0-42.78,17.18-42.89,47.66c-0.05,13.9,0.43,23.05,1.84,33.14c4.39,31.36,33.26,40.15,41.05,40.15 c9.55,0,36.75-8.79,41.14-40.15C254.89,189.79,255.36,180.64,255.31,166.74z" fill="#aa7648"/></g><g id="change6_2"><path d="M183.37,150.32c11.09-5.63,23.66-7.87,36.01-6.32c13.72,1.72,25.43,8.12,35.65,16.65 c-2.43-26.67-1.81-41.58-42.69-41.58c-39.67,0-39.74,14.54-42.5,40.58C173.96,156.05,178.43,152.83,183.37,150.32z" fill="#472312"/></g><g id="change7_1"><path d="M185.15 242.46L171.31 255.9 201.45 293.34 213.75 276.38z" fill="#fff"/></g><g id="change7_2"><path d="M239.37 242.46L253.22 255.9 223.08 293.34 210.77 276.38z" fill="#fff"/></g><g id="change6_1"><path d="M214.56,223.81c-0.11-0.17-0.21-0.33-0.31-0.49c-0.95-1.58-3.15-1.76-4.4-0.4 c-1.31,1.42-2.89,2.7-4.44,3.79c-4.03,2.83-9.41,2.99-13.55,0.32c-6.94-4.48-13.03-11.45-19.2-20.55 c7.2,26,32.46,33.54,39.67,33.54c8.43,0,30.6-6.86,38.71-30.03c-4.73,8.31-10.98,15.22-19.29,18.53 C224.43,231.44,218.2,229.51,214.56,223.81z" fill="#472312"/></g></g></svg>