<?xml version="1.0" encoding="UTF-8"?><svg xmlns="http://www.w3.org/2000/svg" xmlns:xlink="http://www.w3.org/1999/xlink" height="255.1" preserveAspectRatio="xMidYMid meet" version="1.0" viewBox="84.8 85.0 255.7 255.1" width="255.7" zoomAndPan="magnify"><g><g id="change1_1"><path d="M339.88,212.6c0,31.7-11.58,60.72-30.72,83.03c-1.73,2.02-3.53,3.98-5.39,5.89 c-4.74,4.88-9.88,9.39-15.35,13.45c-21.24,15.83-47.57,25.19-76.09,25.19c-0.39,0-0.77,0-1.16-0.01 c-17.8-0.15-34.72-3.96-50.07-10.7c-8.88-3.89-17.22-8.76-24.9-14.48c-5.56-4.15-10.77-8.73-15.58-13.71 c-1.77-1.82-3.48-3.7-5.13-5.62c-19.14-22.31-30.73-51.33-30.73-83.04c0-70.45,57.12-127.56,127.57-127.56 c48.34,0,90.4,26.9,112.04,66.55c7.18,13.15,12.1,27.7,14.27,43.14C339.46,200.57,339.88,206.54,339.88,212.6z" fill="#ae6aa9"/></g><g id="change2_1"><path d="M340.44,212.6c0,31.7-11.58,60.72-30.72,83.03c-1.73,2.02-3.53,3.98-5.39,5.89 c-4.74,4.88-9.88,9.39-15.35,13.45c-21.24,15.83-47.57,25.19-76.09,25.19c-0.39,0-0.77,0-1.16-0.01l-15.44-27.43l42.2-186.44 l100.71,68.45C340.02,200.57,340.44,206.54,340.44,212.6z" fill="#8f588b"/></g><g id="change3_7"><path d="M157.42,145.11c-5.07,9.64-6.66,17.98-4.72,29.14c0.97,5.58,4.98,10.05,6.84,15.41 c1.24,3.58,1.44,7.85-0.84,10.87c-1.17,1.56-2.87,2.62-4.32,3.93c-4.19,3.79-6.13,9.91-4.89,15.42s5.61,10.21,11.03,11.84 c3.82,1.15,8.33,1.02,11.16,3.83c3.62,3.6,2.44,10.06,5.64,14.04c2.95,3.65,8.51,3.85,13.03,2.56 c4.51-1.29,8.71-3.74,13.36-4.34c3.79-0.49,7.62,0.28,11.37,1.02c1.08,0.21,2.24,0.42,3.26,0c0.7-0.29,1.25-0.85,1.73-1.44 c3.9-4.68,4.74-11.26,4.07-17.31c-0.67-6.06-2.68-11.88-3.82-17.87c-1.92-10.06-1.39-20.41-1.89-30.64 c-0.49-9.8-1.93-19.55-1.97-29.36c-0.02-5.33,0.37-10.77-1.05-15.91c-1.37-4.97-2.47-10.86-7.33-13.57 c-3.11-1.74-6.76-2.21-10.3-2.57c-5.96-0.6-12.13-0.95-17.8,0.98c-9.62,3.27-15.91,12.34-20.99,21.14 C158.43,143.24,157.91,144.18,157.42,145.11z" fill="#fff"/></g><g id="change3_1"><path d="M266.25,147.11c2.92,5.94,4.74,12.42,5.34,19.02c0.35,3.79,0.79,8.11,0.63,11.9 c-0.17,4.26-3.08,7.69-4.45,11.64c-1.24,3.58-1.44,7.85,0.84,10.87c1.17,1.56,2.87,2.62,4.32,3.93 c4.19,3.79,6.13,9.91,4.89,15.42s-5.61,10.21-11.03,11.84c-3.82,1.15-8.33,1.02-11.16,3.83c-3.62,3.6-2.44,10.06-5.64,14.04 c-2.95,3.65-8.51,3.85-13.03,2.56c-4.51-1.29-8.71-3.74-13.36-4.34c-3.79-0.49-7.62,0.28-11.37,1.02 c-1.08,0.21-2.24,0.42-3.26,0c-0.7-0.29-1.25-0.85-1.73-1.44c-3.9-4.68-4.74-11.26-4.07-17.31c0.67-6.06,2.68-11.88,3.82-17.87 c1.92-10.06,1.39-20.41,1.89-30.64c0.36-7.24,1.25-14.44,1.69-21.67c0.25-4.07,0.77-5.44-2.08-8.05 c-2.56-2.35-5.35-4.33-7.76-6.86c-2.92-3.07-5.57-6.54-6.85-10.59c-1.27-4.05-0.99-8.76,1.55-12.15 c4.23-5.65,12.51-5.74,19.54-5.29c4.55,0.29,9.12,0.58,13.6,1.45c13.16,2.55,25.24,10.26,33.1,21.11 C263.43,141.92,264.95,144.46,266.25,147.11z" fill="#fff"/></g><g id="change4_1"><path d="M270.99,268.72l-30.67-9.99c-5.66-1.84-9.49-7.12-9.49-13.07v-23.53h-37.15v23.82 c0,6-3.89,11.3-9.61,13.11l-30.72,9.7c-15.91,4.85-27.96,17.23-32.74,32.51c4.81,4.98,10.02,9.56,15.58,13.71 c7.68,5.72,16.02,10.59,24.9,14.48c15.68,6.89,33,10.71,51.23,10.71c28.52,0,54.85-9.36,76.09-25.19 c5.47-4.06,10.61-8.57,15.35-13.45C299.06,286.11,286.98,273.62,270.99,268.72z" fill="#e5ba8c"/></g><g id="change5_1"><path d="M270.99,268.72l-30.67-9.99c-1.77-0.58-3.36-1.49-4.71-2.65c-14.67,7.16-33.2,8.14-46.46,0.07 c-1.43,1.29-3.14,2.3-5.06,2.91l-30.72,9.7c-15.91,4.85-27.96,17.23-32.74,32.51c4.81,4.98,10.02,9.56,15.58,13.71 c7.68,5.72,16.02,10.59,24.9,14.48c15.68,6.89,33,10.71,51.23,10.71c28.52,0,54.85-9.36,76.09-25.19 c5.47-4.06,10.61-8.57,15.35-13.45C299.06,286.11,286.98,273.62,270.99,268.72z" fill="#c8c4e3"/></g><g id="change6_3"><path d="M252.33,169.44c-0.1-28.45-17.51-48.88-40.03-48.88c-0.01,0-0.03,0-0.04,0s-0.03,0-0.04,0 c-22.51,0-39.93,20.43-40.03,48.88c-0.05,12.97,0.31,16.2,1.63,25.61c4.1,29.26,31.13,42.78,38.4,42.78 c8.91,0,34.17-13.52,38.27-42.78C251.81,185.64,252.38,182.41,252.33,169.44z" fill="#fbcb98"/></g><g id="change6_1"><path d="M172.19,173.77c-1.19-1.29-3.01-1.92-4.03-0.13c-1.48,2.56-1.32,5.99-1.11,8.82 c0.17,2.29,0.46,4.59,1.06,6.81c0.52,1.93,1.23,4.57,2.94,5.77c0.39,0.27,0.93,0.54,1.42,0.65c0.27,0.06,1.91,0.09,1.36-0.63" fill="#fbcb98"/></g><g id="change6_2"><path d="M252.12,173.77c1.19-1.29,3.01-1.92,4.03-0.13c1.48,2.56,1.32,5.99,1.11,8.82 c-0.17,2.29-0.46,4.59-1.06,6.81c-0.52,1.93-1.23,4.57-2.94,5.77c-0.39,0.27-0.93,0.54-1.42,0.65 c-0.27,0.06-1.91,0.09-1.36-0.63" fill="#fbcb98"/></g><g id="change3_3"><path d="M177.09,172.04c0.03-0.08,0.06-0.16,0.09-0.23c0.62-1.66,1.31-3.4,2.7-4.48c1.44-1.12,3.35-1.34,5.14-1.69 c7.82-1.52,14.94-6.36,19.21-13.08c4.28-6.72,5.66-15.22,3.72-22.94c-0.67-2.69-1.77-5.34-3.7-7.33 c-8.58-8.83-23.1,8.09-27.15,15.06c-3.93,6.78-6.25,14.82-6.56,22.65c0,6.24-1.67,18.12,2.07,23.33 C174.57,179.93,175.7,175.76,177.09,172.04z" fill="#fff"/></g><g><g id="change3_8"><path d="M188.26,175.92h-0.06c-3.52,0-6.39,2.88-6.39,6.39v0.11l14.24,14.24h5.89c1.92,0,3.65-0.87,4.83-2.22 C200.6,188.26,194.43,182.09,188.26,175.92z" fill="#fff" opacity=".42"/></g><g id="change7_1"><path d="M201.94,197.73h-13.73c-4.12,0-7.47-3.35-7.47-7.47v-7.96c0-4.12,3.35-7.47,7.47-7.47h13.73 c4.12,0,7.47,3.35,7.47,7.47v7.96C209.41,194.38,206.06,197.73,201.94,197.73z M188.21,176.99c-2.93,0-5.32,2.39-5.32,5.32 v7.96c0,2.93,2.38,5.32,5.32,5.32h13.73c2.93,0,5.32-2.39,5.32-5.32v-7.96c0-2.93-2.39-5.32-5.32-5.32H188.21z" fill="inherit"/></g><g id="change3_6"><path d="M222.09,175.92h-0.06c-3.52,0-6.39,2.88-6.39,6.39v0.11l14.24,14.24h5.89c1.92,0,3.65-0.87,4.83-2.22 C234.43,188.26,228.26,182.09,222.09,175.92z" fill="#fff" opacity=".42"/></g><g id="change7_4"><path d="M235.76,197.73h-13.73c-4.12,0-7.47-3.35-7.47-7.47v-7.96c0-4.12,3.35-7.47,7.47-7.47h13.73 c4.12,0,7.47,3.35,7.47,7.47v7.96C243.23,194.38,239.88,197.73,235.76,197.73z M222.03,176.99c-2.93,0-5.32,2.39-5.32,5.32 v7.96c0,2.93,2.39,5.32,5.32,5.32h13.73c2.93,0,5.32-2.39,5.32-5.32v-7.96c0-2.93-2.39-5.32-5.32-5.32H222.03z" fill="inherit"/></g><g id="change7_5"><path d="M215.64,185h-7.31c-0.59,0-1.08-0.48-1.08-1.08s0.48-1.08,1.08-1.08h7.31c0.59,0,1.08,0.48,1.08,1.08 S216.23,185,215.64,185z" fill="inherit"/></g><g id="change7_2"><path d="M181.81,181.89c-0.22,0-0.44-0.07-0.63-0.21l-9.63-7.05c-0.48-0.35-0.58-1.03-0.23-1.5s1.03-0.58,1.5-0.23l9.63,7.05 c0.48,0.35,0.58,1.03,0.23,1.5C182.47,181.74,182.14,181.89,181.81,181.89z" fill="inherit"/></g><g id="change7_3"><path d="M242.16,180.86c-0.36,0-0.72-0.19-0.92-0.52c-0.31-0.51-0.14-1.17,0.37-1.48l9.96-6.02c0.51-0.3,1.17-0.14,1.48,0.37 s0.14,1.17-0.37,1.48l-9.96,6.02C242.54,180.81,242.35,180.86,242.16,180.86z" fill="inherit"/></g></g><g id="change3_2"><path d="M212.58,261.82c0,0-12.54,22.7-27.71,12.29c-16.47-11.31-0.89-17.09,5.76-17.97 C190.63,256.15,199.06,261.06,212.58,261.82z" fill="#fff"/></g><g id="change3_4"><path d="M214.41,261.58c0,0,8.17,20.75,24.85,12.98c17.29-8.05,3.23-17.61-3.42-18.48 C235.83,256.08,227.93,260.82,214.41,261.58z" fill="#fff"/></g><g id="change3_5"><path d="M198.13,149.69c3.27,5.44,9.36,9.42,15.7,9.08c4.87-0.26,9.73-2.91,14.4-1.54c2.47,0.73,4.58,2.61,5.58,4.98 c1.49,3.53,0.53,7.59,1.1,11.38c1.89,12.5,19.6,14.53,17.36,29.79c4.46-0.25,5.15-6.22,6.81-9.25c2.67-4.89,5.1-8.52,5.44-14.36 c0.36-6.09-1.04-12.14-2.82-17.97c-7.66-25.19-27.07-48.6-56.08-43.96c-8.22,1.31-10.3,5.49-11.15,13.12 C193.79,137.22,194.85,144.25,198.13,149.69z" fill="#fff"/></g></g></svg>