<?xml version="1.0" encoding="UTF-8"?><svg xmlns="http://www.w3.org/2000/svg" xmlns:xlink="http://www.w3.org/1999/xlink" height="255.1" preserveAspectRatio="xMidYMid meet" version="1.0" viewBox="84.8 85.0 255.7 255.1" width="255.7" zoomAndPan="magnify"><g><g id="change1_1"><path d="M339.88,212.6c0,31.7-11.58,60.72-30.72,83.03c-1.73,2.02-3.53,3.98-5.39,5.89 c-4.74,4.88-9.88,9.39-15.35,13.45c-21.24,15.83-47.57,25.19-76.09,25.19c-0.39,0-0.77,0-1.16-0.01 c-17.8-0.15-34.72-3.96-50.07-10.7c-8.88-3.89-17.22-8.76-24.9-14.48c-5.56-4.15-10.77-8.73-15.58-13.71 c-1.77-1.82-3.48-3.7-5.13-5.62c-19.14-22.31-30.73-51.33-30.73-83.04c0-70.45,57.12-127.56,127.57-127.56 c48.34,0,90.4,26.9,112.04,66.55c7.18,13.15,12.1,27.7,14.27,43.14C339.46,200.57,339.88,206.54,339.88,212.6z" fill="#ffdd3c"/></g><g id="change2_1"><path d="M340.44,212.6c0,31.7-11.58,60.72-30.72,83.03c-1.73,2.02-3.53,3.98-5.39,5.89 c-4.74,4.88-9.88,9.39-15.35,13.45c-21.24,15.83-47.57,25.19-76.09,25.19c-0.39,0-0.77,0-1.16-0.01l-15.44-27.43l54.65-185.14 l88.26,67.15C340.02,200.57,340.44,206.54,340.44,212.6z" fill="#fcc33d"/></g><g id="change3_1"><path d="M263.85,197.68c0.22-3,0.3-6.01,0.24-9.02c-0.41-18.11-5.93-35.89-15.02-51.51 c-3.71-6.38-8.67-15.83-15.13-19.74c-2.24-1.35-22.7-4.67-22.7-4.02c0,17.79,0,35.58,0,53.37c0,27.05-7,52.04-7.71,79.14 c-0.18,6.92,0.43,14.9,6.02,18.98c7.08,5.17,17.1,0.57,23.79-5.11C251.4,244.44,262.09,221.34,263.85,197.68z" fill="#d36342"/></g><g id="change3_2"><path d="M156.02,197.36c-7.24-41.5,6.95-84.71,57.07-83.98c-1.33,20.44,6.56,37.41,8.58,57.17 c3.32,32.58-2.28,68.12-3.68,100.83c-11.71,1.47-22.89-5.35-31.56-13.36C171.15,243.94,160.13,220.93,156.02,197.36z" fill="#d36342"/></g><g id="change4_1"><path d="M270.99,268.72l-30.67-9.99c-5.66-1.84-9.49-7.12-9.49-13.07v-23.53h-37.15v23.82 c0,6-3.89,11.3-9.61,13.11l-30.72,9.7c-15.91,4.85-27.96,17.23-32.74,32.51c4.81,4.98,10.02,9.56,15.58,13.71 c7.68,5.72,16.02,10.59,24.9,14.48c15.68,6.89,33,10.71,51.23,10.71c28.52,0,54.85-9.36,76.09-25.19 c5.47-4.06,10.61-8.57,15.35-13.45C299.06,286.11,286.98,273.62,270.99,268.72z" fill="#eec191"/></g><g id="change5_1"><path d="M273.43,269.55c-0.8-0.29-1.61-0.58-2.44-0.83l-26.67-8.69c-6.91,7.34-15.93,12.27-26.51,13.4 c-11.58,1.24-29.36-2.34-34.94-14l-26.83,8.47c5.65,13.32,4.06,29.08-0.64,42.63c-1.57,4.51-3.46,8.94-5.66,13.24 c3.68,2.07,7.46,3.98,11.36,5.68c15.68,6.89,33,10.71,51.23,10.71c21.76,0,42.24-5.46,60.17-15.08 C265.88,307.22,265.73,286.93,273.43,269.55z" fill="#ae6aa9"/></g><g id="change6_1"><path d="M252.33,169.44c-0.1-28.45-17.51-48.88-40.03-48.88c-0.01,0-0.03,0-0.04,0s-0.03,0-0.04,0 c-22.51,0-39.93,20.43-40.03,48.88c-0.05,12.97,0.31,16.2,1.63,25.61c4.1,29.26,31.13,42.78,38.4,42.78 c8.91,0,34.17-13.52,38.27-42.78C251.81,185.64,252.38,182.41,252.33,169.44z" fill="#fbcb98"/></g><g id="change6_3"><path d="M172.19,173.77c-1.19-1.29-3.01-1.92-4.03-0.13c-1.48,2.56-1.32,5.99-1.11,8.82 c0.17,2.29,0.46,4.59,1.06,6.81c0.52,1.93,1.23,4.57,2.94,5.77c0.39,0.27,0.93,0.54,1.42,0.65c0.27,0.06,1.91,0.09,1.36-0.63" fill="#fbcb98"/></g><g id="change6_2"><path d="M252.12,173.77c1.19-1.29,3.01-1.92,4.03-0.13c1.48,2.56,1.32,5.99,1.11,8.82 c-0.17,2.29-0.46,4.59-1.06,6.81c-0.52,1.93-1.23,4.57-2.94,5.77c-0.39,0.27-0.93,0.54-1.42,0.65 c-0.27,0.06-1.91,0.09-1.36-0.63" fill="#fbcb98"/></g><g id="change7_1"><path d="M240.98,183.14c2.55,6.6,3.28,14.38,3.43,20.94c0.32,13.67-2.11,27.39-7.09,40.12 c-1.98,5.05-4.36,9.98-5.66,15.25c-6.41,25.99,16.58,48.74,40.78,53.14c-6.4-8.66-11.2-18.81-12.79-29.51 c-1.66-11.21-4.51-19.2,0.55-30.41c3.28-7.26,7.86-13.96,10.21-21.58c1.86-6.04,2.24-12.43,2.6-18.74 c1.32-22.94-2.83-51.72-15.59-71.47c-10.11-15.65-16.73-25.27-38.9-27.57c-28.01-2.9-43.9,15.95-48.01,32.67 c-1.88,7.65,0.39,16.19,5.81,21.9c10.16,10.71,27.16,9.66,41.31,13.92c7.37,2.22,14.24,6.06,19.98,11.17 c-0.73-0.65-0.11-14.73-0.59-16.97C238.67,178.1,239.96,180.53,240.98,183.14z" fill="#ed6e4a"/></g></g></svg>