<?xml version="1.0" encoding="UTF-8"?><svg xmlns="http://www.w3.org/2000/svg" xmlns:xlink="http://www.w3.org/1999/xlink" data-name="Layer 5" height="116.0" preserveAspectRatio="xMidYMid meet" version="1.0" viewBox="26.0 6.0 76.0 116.0" width="76.0" zoomAndPan="magnify"><g id="change1_1"><path d="m64 74c20.9867 0 38 14.5827 38 32.5714v15.4286h-76v-15.4286c0-17.9887 17.0132-32.5714 38-32.5714z" fill="#4f4f4f"/></g><g id="change2_1"><path d="m64 74a41.2393 41.2393 0 0 1 27 9.6567v38.3433h-54v-38.3433a41.2393 41.2393 0 0 1 27-9.6567z" fill="#3a3a3a"/></g><g id="change3_1"><ellipse cx="64" cy="82.5" fill="#dc6482" rx="26" ry="14.5"/></g><g id="change4_1"><rect fill="#d2506a" height="40" rx="20" width="40" x="44" y="45"/></g><g id="change3_2"><rect fill="#dc6482" height="40" rx="20" width="40" x="44" y="38"/></g><g id="change5_1"><path d="m64 72a22.0647 22.0647 0 0 0 22-22v-10a22 22 0 0 0 -22-22 22.0647 22.0647 0 0 0 -22 22v10a22.0647 22.0647 0 0 0 22 22z" fill="#fdc8a8"/></g><g id="change6_1"><path d="m58 60a6 6 0 0 0 12 0z" fill="#e62626"/></g><g id="change7_1"><path d="m46.9127 38.6941a8.4177 8.4177 0 0 1 10.1746 0 1.2388 1.2388 0 0 0 1.5626.0518 1.1267 1.1267 0 0 0 -.3636-1.6314 10.4019 10.4019 0 0 0 -12.5727 0 1.1268 1.1268 0 0 0 -.3635 1.6314 1.2387 1.2387 0 0 0 1.5626-.0518z" fill="#2c2c2c"/></g><g id="change7_2"><path d="m70.9127 38.6941a8.4177 8.4177 0 0 1 10.1746 0 1.2388 1.2388 0 0 0 1.5626.0518 1.1268 1.1268 0 0 0 -.3635-1.6314 10.4021 10.4021 0 0 0 -12.5728 0 1.1268 1.1268 0 0 0 -.3635 1.6314 1.2387 1.2387 0 0 0 1.5626-.0518z" fill="#2c2c2c"/></g><g id="change8_1"><path d="m64 56a2 2 0 0 0 2-2v-4a2 2 0 0 0 -2-2 2 2 0 0 0 -2 2v4a2 2 0 0 0 2 2z" fill="#edb494"/></g><g id="change7_3"><circle cx="76" cy="45" fill="#2c2c2c" r="3"/></g><g id="change7_4"><circle cx="52" cy="45" fill="#2c2c2c" r="3"/></g><g id="change9_1"><path d="m86 22.42a45.1406 45.1406 0 0 0 -44 0v12.58a39.1229 39.1229 0 0 1 44 0z" fill="#fff"/></g><g id="change10_1"><path d="m64 6a29 29 0 0 0 -29 29v24a29 29 0 0 0 58 0v-24a29 29 0 0 0 -29-29zm-18.7524 56.039 1.7543-28.07a17.0313 17.0313 0 0 1 16.9981-15.969 17.0313 17.0313 0 0 1 16.9981 15.9688l1.7543 28.07a18.7889 18.7889 0 0 1 -18.7524 19.9612 18.7889 18.7889 0 0 1 -18.7524-19.961z" fill="#e67d99"/></g></svg>