<?xml version="1.0" encoding="UTF-8"?><svg xmlns="http://www.w3.org/2000/svg" xmlns:xlink="http://www.w3.org/1999/xlink" height="255.1" preserveAspectRatio="xMidYMid meet" version="1.0" viewBox="85.0 85.0 255.1 255.1" width="255.1" zoomAndPan="magnify"><g><g id="change1_1"><path d="M340.16,212.6c0,31.7-11.58,60.72-30.72,83.03c-6.17,7.19-13.14,13.69-20.74,19.34 c-21.24,15.83-47.57,25.19-76.09,25.19c-18.23,0-35.55-3.82-51.23-10.71c-8.88-3.89-17.22-8.76-24.9-14.48 c-7.59-5.67-14.54-12.15-20.71-19.33c-19.14-22.31-30.73-51.33-30.73-83.04c0-70.45,57.12-127.56,127.57-127.56 c48.34,0,90.4,26.9,112.04,66.55C334.54,169.71,340.16,190.5,340.16,212.6z" fill="#aad8f4"/></g><g id="change2_1"><path d="M340.16,212.6c0,31.7-11.58,60.72-30.72,83.03c-6.17,7.19-13.14,13.69-20.74,19.34 c-21.24,15.83-47.57,25.19-76.09,25.19c-18.23,0-35.55-3.82-51.23-10.71l57.21-193.96l-6.16-15.44l31.14,2.99l81.08,28.55 C334.54,169.71,340.16,190.5,340.16,212.6z" fill="#5ec1ed"/></g><g id="change3_1"><path d="M169.7,171.38c-1.27-1.39-3.22-2.05-4.32-0.14c-1.58,2.74-1.42,6.42-1.19,9.45 c0.19,2.45,0.49,4.91,1.13,7.3c0.55,2.06,1.31,4.9,3.15,6.18c0.42,0.29,0.99,0.58,1.52,0.69c0.29,0.06,2.05,0.09,1.45-0.67" fill="#fbcb98"/></g><g id="change3_4"><path d="M255.36,171.38c1.27-1.39,3.22-2.05,4.32-0.14c1.58,2.74,1.42,6.42,1.19,9.45 c-0.19,2.45-0.49,4.91-1.13,7.3c-0.55,2.06-1.31,4.9-3.15,6.18c-0.42,0.29-0.99,0.58-1.52,0.69c-0.29,0.06-2.05,0.09-1.45-0.67" fill="#fbcb98"/></g><g id="change3_3"><path d="M309.44,295.63c-6.17,7.19-13.13,13.69-20.74,19.34H136.48c-7.6-5.67-14.55-12.15-20.71-19.33 c5.78-14.73,18.03-26.48,33.83-31.3l26.3-10.1c10.16-3.34,9.7-8.96,9.7-19.66v-22.76h53.99v22.74 c0,10.71,0.54,17.07,10.72,20.4l25.33,9.35C291.44,269.15,303.68,280.9,309.44,295.63z" fill="#fbcb98"/></g><g id="change4_1"><path d="M309.44,295.63c-23.39,27.26-58.09,44.53-96.83,44.53s-73.44-17.27-96.83-44.52 c5.78-14.73,18.03-26.48,33.83-31.3l26.3-10.1c2.96-0.98,5.02-2.15,6.45-3.58c0.1,0.1,0.21,0.19,0.31,0.29 c16.85,15.77,42.72,16.9,60.74,2.48c0.58-0.47,1.1-0.84,1.54-1.11c1.39,1.03,3.14,1.91,5.36,2.64l25.33,9.35 C291.44,269.15,303.68,280.9,309.44,295.63z" fill="#092838"/></g><g id="change3_2"><path d="M255.58,166.74c-0.11-30.48-19.03-46.69-43.15-46.69c-0.01,0,0.01,0,0,0s-1.82-1.99-1.84-1.99 c-24.12,0-40.78,18.2-40.88,48.69c-0.05,13.9,0.43,23.05,1.84,33.14c4.39,31.36,33.26,40.15,41.05,40.15 c9.55,0,36.75-8.79,41.14-40.15C255.15,189.79,255.63,180.64,255.58,166.74z" fill="#fbcb98"/></g><g id="change5_1"><path d="M173.65,176.33c1.5-8.99,4.28-17.77,6.76-26.59c1.82-6.49,5.13-14.26,11.85-14.69 c7.09-0.45,12.19,7.98,19.29,8.12c4.68,0.09,8.52-3.43,12.26-6.26c3.74-2.82,8.97-5.14,12.91-2.61 c3.03,1.94,3.33,5.01,4.28,8.06c1.43,4.62,3.3,9.13,5.11,13.66c3.82,9.58,7.68,19.33,8.57,29.61 c2.91-12.61,3.28-25.8,1.09-38.55c-2.95-17.19-12.63-28.98-30.05-32.83c-7.68-1.7-15.59-2.39-23.29-3.9 c1.91,2.27,2.23,5.34,2.78,8.17c-3.51,0.62-7.5-0.84-11.21-0.62c-4.61,0.28-9.17,1.64-13.14,4 c-6.68,3.96-11.65,10.71-13.46,18.26c-0.93,3.87-1.05,7.89-1,11.87c0.14,10.72,2.94,20.67,3.55,31.18c0.1,1.79,0,3.3-0.19,5 c-0.15,1.38,0.07,3.17,0.51,4.46c-0.53-1.57,2.82-12.86,3.29-15.8C173.59,176.7,173.62,176.51,173.65,176.33z" fill="#8e4a33"/></g><g id="change6_1"><path d="M230.6,200.7c-4.93-2.04-8.38-5.95-12.94-8.51c-5.28-2.96-10.44-0.74-15.14,2.22 c-4.77,3.01-9.53,6.1-15.39,6.12c-5.55,0.02-10.78-2.41-14.8-6.13c-0.67-0.62-1.3-1.28-1.91-1.95c0.26,2.74,0.57,5.44,0.96,8.2 c4.39,31.36,33.26,40.15,41.05,40.15c9.55,0,36.75-8.79,41.14-40.15c0.18-1.27,1.7-8.61,1.84-9.85 C248.95,196.38,238.97,204.16,230.6,200.7z M218.26,217.78c0,0-0.89-1.99-1.99-1.99h-6c-1.1,0-1.99,0.89-1.99,1.99l-0.84,4.44 c0,1.26-1.22,2.15-2.42,1.78c-4.17-1.27-8.54-3.81-12.93-8.21c0,0,6.64-4.83,12.54-8.49c5.07-3.14,11.46-2.94,16.54,0.18 c3.05,1.87,6.43,4.34,12.15,8.31c0,0-5.4,5.51-13.47,8.03C218.65,224.2,218.26,219.05,218.26,217.78z" fill="#9f533a"/></g></g></svg>