<?xml version="1.0" encoding="UTF-8"?><svg xmlns="http://www.w3.org/2000/svg" xmlns:xlink="http://www.w3.org/1999/xlink" height="242.4" preserveAspectRatio="xMidYMid meet" version="1.0" viewBox="83.1 91.4 259.0 242.4" width="259.0" zoomAndPan="magnify"><g><g id="change1_1"><path d="M155.13,167.78c-1.7-1.86-4.32-2.75-5.79-0.19c-2.12,3.68-1.9,8.59-1.59,12.66 c0.25,3.29,0.66,6.58,1.52,9.77c0.74,2.76,1.76,6.56,4.22,8.28c0.56,0.39,1.33,0.78,2.04,0.93c0.39,0.08,2.74,0.12,1.95-0.9" fill="#f5a065"/></g><g id="change1_3"><path d="M269.86,167.78c1.7-1.86,4.32-2.75,5.79-0.19c2.12,3.68,1.9,8.59,1.59,12.66 c-0.25,3.29-0.66,6.58-1.52,9.77c-0.74,2.76-1.76,6.56-4.22,8.28c-0.56,0.39-1.33,0.78-2.04,0.93 c-0.39,0.08-2.74,0.12-1.95-0.9" fill="#f5a065"/></g><g id="change2_1"><path d="M342.12,333.79c-7.79-19.52-24.08-35.08-45.08-41.51l-33.93-12.52c-13.64-4.46-14.36-12.98-14.36-27.33 v-30.46h-72.32v30.49c0,14.33,0.62,21.86-12.99,26.34l-35.23,13.53c-21,6.41-37.31,21.96-45.12,41.47H342.12z" fill="#e89860"/></g><g id="change3_1"><path d="M342.12,333.79c-7.79-19.52-24.08-35.08-45.08-41.51l-33.93-12.52c-2.97-0.98-5.72-4.38-7.58-5.76 c-9.3,5.59-43.17,48.85-43.17,48.85s-26.44-36.11-40.29-48.85c-1.92,1.92-4.67,3.48-8.64,4.8l-35.23,13.53 c-21,6.41-37.31,21.96-45.12,41.47H342.12z" fill="#aad8f4"/></g><g id="change1_2"><path d="M270.17,161.58c-0.15-40.83-25.14-70.16-57.46-70.16c-0.02,0-0.04,0-0.06,0s-0.04,0-0.06,0 c-32.32,0-57.31,29.33-57.46,70.16c-0.07,18.61,0.57,30.88,2.47,44.39c5.89,42,44.55,53.78,54.99,53.78 c12.79,0,49.22-11.77,55.11-53.78C269.59,192.46,270.23,180.19,270.17,161.58z" fill="#f5a065"/></g><g id="change4_3"><path d="M258.77,208.72c-11.26,15.56-16.67,35.01-46.4,32.85c-24.54-1.78-31.27-19.54-41.68-30.52 c-8.78-9.27-15.42-29.29-15.53-42.02c0.12,14.61,0.82,25.31,2.45,36.93c5.89,42,44.55,53.78,54.99,53.78 c12.79,0,49.22-11.77,55.11-53.78c0.88-6.25,1.48-12.23,1.87-18.7C267.14,194.87,263.47,202.22,258.77,208.72z" fill="#dadada"/></g><g id="change4_1"><path d="M273.55,163.12c0.32-0.86,0.64-1.73,0.95-2.61c1.55-4.28,1.27-8.79,1.31-13.28 c0.06-6.23-1.04-12.48-3.25-18.3c-1.4-3.68-3.38-7.36-6.7-9.47c-2.81-1.79-6.43-2.23-9.59-1.19 c-8.05,2.67-11.07,15.19-11.16,22.68c-0.11,9.57,4.22,18.99,11.14,25.6c3.6,3.44,7.09,6.95,9.19,11.58 c2.14,4.71,4.54-2.29,4.9-4.24C271.04,170.12,272.26,166.65,273.55,163.12z" fill="#dadada"/></g><g id="change4_2"><path d="M149.82,163.12c-0.32-0.86-0.64-1.73-0.95-2.61c-1.55-4.28-1.27-8.79-1.31-13.28 c-0.06-6.23,1.04-12.48,3.25-18.3c1.4-3.68,3.38-7.36,6.7-9.47c2.81-1.79,6.43-2.23,9.59-1.19 c8.05,2.67,11.07,15.19,11.16,22.68c0.11,9.57-4.22,18.99-11.14,25.6c-3.6,3.44-7.09,6.95-9.19,11.58 c-2.14,4.71-4.54-2.29-4.9-4.24C152.33,170.12,151.11,166.65,149.82,163.12z" fill="#dadada"/></g><g fill="#fff" id="change5_1"><path d="M197.31,202.66c-5.77,1.84-9.46,6.04-13.76,10.02c-4.34,4.01-9.44,4.56-15.13,3.87 c2.5,2.97,5.32,5.76,8.76,7.54c11.47,5.92,44.81,3.95,37.05-16.34C211.82,201.41,202.87,200.89,197.31,202.66z" fill="inherit"/><path d="M227.99,202.66c5.77,1.84,9.46,6.04,13.76,10.02c4.34,4.01,9.44,4.56,15.13,3.87 c-2.5,2.97-5.32,5.76-8.76,7.54c-11.47,5.92-44.81,3.95-37.05-16.34C213.48,201.41,222.43,200.89,227.99,202.66z" fill="inherit"/></g><g id="change5_3"><path d="M176.4 259.65L154.21 279.33 190.94 322.55 212.36 304.74z" fill="#fff"/></g><g id="change4_4"><path d="M212.36 304.74L212.36 322.74 204.04 311.66z" fill="#dadada"/></g><g id="change5_4"><path d="M249.17 259.46L271.36 279.14 234.63 322.37 213.21 304.55z" fill="#fff"/></g><g id="change4_5"><path d="M213.21 304.55L213.21 322.55 221.53 311.47z" fill="#dadada"/></g><g><g id="change5_5"><path d="M181.26,165.41c-2.61,2.04-4.52,4.94-5.3,8.27c5.92,5.92,11.83,11.83,17.75,17.75 c3.33-0.78,6.23-2.69,8.27-5.3L181.26,165.41z" fill="#fff" opacity=".42"/></g><g id="change5_2"><path d="M226.23,165.17c-2.99,2.21-5.12,5.53-5.78,9.35c5.65,5.72,11.33,11.4,17.02,17.08 c3.84-0.65,7.18-2.79,9.4-5.8C239.99,178.93,233.11,172.05,226.23,165.17z" fill="#fff" opacity=".42"/></g><g id="change6_2"><path d="M220.2,178.5h-15.1c-0.8,0-1.44-0.65-1.44-1.44s0.65-1.44,1.44-1.44h15.1c0.8,0,1.44,0.65,1.44,1.44 S221,178.5,220.2,178.5z" fill="inherit"/></g><g id="change6_4"><path d="M175.55,178.5c-0.16,0-0.32-0.03-0.48-0.08l-22.96-8.02c-0.75-0.26-1.15-1.09-0.89-1.84c0.26-0.75,1.09-1.15,1.84-0.89 l22.96,8.02c0.75,0.26,1.15,1.09,0.89,1.84C176.7,178.13,176.15,178.5,175.55,178.5z" fill="inherit"/></g><g id="change6_1"><path d="M249.75,177.02c-0.6,0-1.15-0.37-1.36-0.97c-0.26-0.75,0.13-1.57,0.89-1.84l22.96-8.02c0.75-0.26,1.57,0.13,1.84,0.89 c0.26,0.75-0.13,1.57-0.89,1.84l-22.96,8.02C250.07,177,249.91,177.02,249.75,177.02z" fill="inherit"/></g><g id="change6_3"><path d="M190.33,193.28c-8.94,0-16.22-7.27-16.22-16.22s7.27-16.22,16.22-16.22c8.94,0,16.22,7.27,16.22,16.22 S199.27,193.28,190.33,193.28z M190.33,163.73c-7.35,0-13.33,5.98-13.33,13.33c0,7.35,5.98,13.33,13.33,13.33 c7.35,0,13.33-5.98,13.33-13.33C203.66,169.71,197.68,163.73,190.33,163.73z" fill="inherit"/></g><g id="change6_5"><path d="M234.97,193.28c-8.94,0-16.22-7.27-16.22-16.22s7.27-16.22,16.22-16.22c8.94,0,16.22,7.27,16.22,16.22 S243.92,193.28,234.97,193.28z M234.97,163.73c-7.35,0-13.33,5.98-13.33,13.33c0,7.35,5.98,13.33,13.33,13.33 c7.35,0,13.33-5.98,13.33-13.33C248.31,169.71,242.33,163.73,234.97,163.73z" fill="inherit"/></g></g></g></svg>