<?xml version="1.0" encoding="UTF-8"?><svg xmlns="http://www.w3.org/2000/svg" xmlns:xlink="http://www.w3.org/1999/xlink" height="255.1" preserveAspectRatio="xMidYMid meet" version="1.0" viewBox="84.8 85.0 255.7 255.1" width="255.7" zoomAndPan="magnify"><g><g id="change1_1"><path d="M339.88,212.6c0,31.7-11.58,60.72-30.72,83.03c-1.73,2.02-3.53,3.98-5.39,5.89 c-4.74,4.88-9.88,9.39-15.35,13.45c-21.24,15.83-47.57,25.19-76.09,25.19c-0.39,0-0.77,0-1.16-0.01 c-17.8-0.15-34.72-3.96-50.07-10.7c-8.88-3.89-17.22-8.76-24.9-14.48c-5.56-4.15-10.77-8.73-15.58-13.71 c-1.77-1.82-3.48-3.7-5.13-5.62c-19.14-22.31-30.73-51.33-30.73-83.04c0-70.45,57.12-127.56,127.57-127.56 c48.34,0,90.4,26.9,112.04,66.55c7.18,13.15,12.1,27.7,14.27,43.14C339.46,200.57,339.88,206.54,339.88,212.6z" fill="#c8c4e3"/></g><g id="change2_1"><path d="M340.44,212.6c0,31.7-11.58,60.72-30.72,83.03c-1.73,2.02-3.53,3.98-5.39,5.89 c-4.74,4.88-9.88,9.39-15.35,13.45c-21.24,15.83-47.57,25.19-76.09,25.19c-0.39,0-0.77,0-1.16-0.01l-15.44-27.43 l40.83-186.82l102.08,68.83C340.02,200.57,340.44,206.54,340.44,212.6z" fill="#9492c7"/></g><g id="change3_2"><path d="M214.83,120.57c-12.41-0.07-25.96,2.78-33.65,12.87c-9.53,12.51-15.63,26.73-15.85,42.66 c-0.03,2.3,0.02,4.74-0.79,6.84c-0.2,0.53-0.45,1.03-0.78,1.51c-1.25,1.86-3.33,2.96-5.32,3.98 c-3.21,1.65-6.54,3.39-8.7,6.28c-4.25,5.67-2.82,13.96-6.39,20.07c-4.91,8.41-17.46,9.97-22.1,18.53 c-2.37,4.37-2.01,10.07,0.89,14.11c2.06,2.88,5.37,5.15,5.93,8.65c0.61,3.83-2.35,7.2-5.01,10.02 c-3.32,3.53-6.57,7.34-8.06,11.95c-1.49,4.61-0.81,10.24,2.82,13.44c2.67,2.35,6.63,3.21,8.62,6.16 c1.4,2.07,1.58,4.86,3.28,6.69c1.75,1.89,4.58,2.21,7.16,2.4c19.91,1.52,39.82,3.04,59.72,4.56 c5.36,0.41,10.79,0.81,16.09-0.15c0.72-0.13,1.43-0.29,2.14-0.46V120.57z" fill="#472312"/></g><g id="change3_1"><path d="M212.32,120.57c12.41-0.07,25.96,2.78,33.65,12.87c9.53,12.51,15.63,26.73,15.85,42.66 c0.03,2.3-0.02,4.74,0.79,6.84c0.2,0.53,0.45,1.03,0.78,1.51c1.25,1.86,3.33,2.96,5.32,3.98c3.21,1.65,6.54,3.39,8.7,6.28 c4.25,5.67,2.82,13.96,6.39,20.07c4.91,8.41,17.46,9.97,22.1,18.53c2.37,4.37,2.01,10.07-0.89,14.11 c-2.06,2.88-5.37,5.15-5.93,8.65c-0.61,3.83,2.35,7.2,5.01,10.02c3.32,3.53,6.57,7.34,8.06,11.95 c1.49,4.61,0.81,10.24-2.82,13.44c-2.67,2.35-6.63,3.21-8.62,6.16c-1.4,2.07-1.58,4.86-3.28,6.69 c-1.75,1.89-4.58,2.21-7.16,2.4c-19.91,1.52-39.82,3.04-59.72,4.56c-5.36,0.41-10.79,0.81-16.09-0.15 c-0.72-0.13-1.43-0.29-2.14-0.46V120.57z" fill="#472312"/></g><g id="change4_1"><path d="M270.99,268.72l-30.67-9.99c-5.66-1.84-9.49-7.12-9.49-13.07v-23.53h-37.15v23.82 c0,6-3.89,11.3-9.61,13.11l-30.72,9.7c-15.91,4.85-27.96,17.23-32.74,32.51c4.81,4.98,10.02,9.56,15.58,13.71 c7.68,5.72,16.02,10.59,24.9,14.48c15.68,6.89,33,10.71,51.23,10.71c28.52,0,54.85-9.36,76.09-25.19 c5.47-4.06,10.61-8.57,15.35-13.45C299.06,286.11,286.98,273.62,270.99,268.72z" fill="#b27d5a"/></g><g id="change5_1"><path d="M270.99,268.72l-24.06-7.84c-18.88,13.87-47.14,12.85-66.45-0.69l-27.12,8.56 c-15.91,4.85-27.96,17.23-32.74,32.51c4.81,4.98,10.02,9.56,15.58,13.71c7.68,5.72,16.02,10.59,24.9,14.48 c15.68,6.89,33,10.71,51.23,10.71c28.52,0,54.85-9.36,76.09-25.19c5.47-4.06,10.61-8.57,15.35-13.45 C299.06,286.11,286.98,273.62,270.99,268.72z" fill="#ed6e4a"/></g><g id="change6_2"><path d="M252.33,169.44c-0.1-28.45-17.51-48.88-40.03-48.88c-0.01,0-0.03,0-0.04,0s-0.03,0-0.04,0 c-22.51,0-39.93,20.43-40.03,48.88c-0.05,12.97,0.31,16.2,1.63,25.61c4.1,29.26,31.13,42.78,38.4,42.78 c8.91,0,34.17-13.52,38.27-42.78C251.81,185.64,252.38,182.41,252.33,169.44z" fill="#c38863"/></g><g id="change3_3"><path d="M212.2,152.28c8.41,15.3,23.91,28.97,39.12,36.83c0.73-5.58,1.05-9.82,1.02-19.66 c-0.1-28.45-17.51-48.88-40.03-48.88c-0.01,0-0.03,0-0.04,0c-0.01,0-0.03,0-0.04,0c-22.51,0-39.93,20.43-40.03,48.88 c-0.03,7.51,0.08,11.76,0.43,15.83C186.67,177.23,210.7,149.56,212.2,152.28z" fill="#472312"/></g><g><g id="change7_1"><path d="M189.08,179.66h-0.06c-3.52,0-6.39,2.88-6.39,6.39v0.11l14.24,14.24h5.89c1.92,0,3.65-0.87,4.83-2.22 C201.42,192,195.25,185.83,189.08,179.66z" fill="#fff" opacity=".42"/></g><g id="change8_2"><path d="M202.75,201.47h-13.73c-4.12,0-7.47-3.35-7.47-7.47v-7.96c0-4.12,3.35-7.47,7.47-7.47h13.73 c4.12,0,7.47,3.35,7.47,7.47v7.96C210.22,198.12,206.87,201.47,202.75,201.47z M189.02,180.73c-2.93,0-5.32,2.38-5.32,5.32 v7.96c0,2.93,2.39,5.32,5.32,5.32h13.73c2.93,0,5.32-2.38,5.32-5.32v-7.96c0-2.93-2.38-5.32-5.32-5.32H189.02z" fill="inherit"/></g><g id="change7_2"><path d="M222.9,179.66h-0.06c-3.52,0-6.39,2.88-6.39,6.39v0.11l14.24,14.24h5.89c1.92,0,3.65-0.87,4.83-2.22 C235.24,192,229.07,185.83,222.9,179.66z" fill="#fff" opacity=".42"/></g><g id="change8_3"><path d="M236.58,201.47h-13.73c-4.12,0-7.47-3.35-7.47-7.47v-7.96c0-4.12,3.35-7.47,7.47-7.47h13.73 c4.12,0,7.47,3.35,7.47,7.47v7.96C244.05,198.12,240.7,201.47,236.58,201.47z M222.85,180.73c-2.93,0-5.32,2.38-5.32,5.32v7.96 c0,2.93,2.38,5.32,5.32,5.32h13.73c2.93,0,5.32-2.38,5.32-5.32v-7.96c0-2.93-2.39-5.32-5.32-5.32H222.85z" fill="inherit"/></g><g id="change8_5"><path d="M216.45,188.74h-7.31c-0.59,0-1.08-0.48-1.08-1.08s0.48-1.08,1.08-1.08h7.31c0.59,0,1.08,0.48,1.08,1.08 S217.05,188.74,216.45,188.74z" fill="inherit"/></g><g id="change8_4"><path d="M182.62,185.63c-0.22,0-0.44-0.07-0.63-0.21l-9.63-7.05c-0.48-0.35-0.58-1.02-0.23-1.5c0.35-0.48,1.02-0.58,1.5-0.23 l9.63,7.05c0.48,0.35,0.58,1.02,0.23,1.5C183.28,185.48,182.96,185.63,182.62,185.63z" fill="inherit"/></g><g id="change8_1"><path d="M242.97,184.6c-0.36,0-0.72-0.19-0.92-0.52c-0.31-0.51-0.14-1.17,0.37-1.48l9.96-6.02c0.51-0.3,1.17-0.14,1.48,0.37 s0.14,1.17-0.37,1.48l-9.96,6.02C243.35,184.55,243.16,184.6,242.97,184.6z" fill="inherit"/></g></g><g id="change6_1"><path d="M172.19,173.77c-1.19-1.29-3.01-1.92-4.03-0.13c-1.48,2.56-1.32,5.99-1.11,8.82 c0.17,2.29,0.46,4.59,1.06,6.81c0.52,1.93,1.23,4.57,2.94,5.77c0.39,0.27,0.93,0.54,1.42,0.65c0.27,0.06,1.91,0.09,1.36-0.63" fill="#c38863"/></g><g id="change6_3"><path d="M252.12,173.77c1.19-1.29,3.01-1.92,4.03-0.13c1.48,2.56,1.32,5.99,1.11,8.82 c-0.17,2.29-0.46,4.59-1.06,6.81c-0.52,1.93-1.23,4.57-2.94,5.77c-0.39,0.27-0.93,0.54-1.42,0.65c-0.27,0.06-1.91,0.09-1.36-0.63" fill="#c38863"/></g></g></svg>