<?xml version="1.0" encoding="UTF-8"?><svg xmlns="http://www.w3.org/2000/svg" xmlns:xlink="http://www.w3.org/1999/xlink" height="249.4" preserveAspectRatio="xMidYMid meet" version="1.0" viewBox="85.0 87.0 255.1 249.4" width="255.1" zoomAndPan="magnify"><g><g id="change1_1"><path d="M183.39,91.78c-2.3,0.94-4.4,2.07-6.17,3.33c-12.61,8.95-27.72,15.39-37.06,28.44 c-7.82,10.93-10.66,25.28-7.61,38.37c1.26,5.41,3.47,10.58,4.53,16.03c0.92,4.71,0.96,9.6,0.12,14.33 c-1.48,8.39-5.54,17.64-0.97,24.84c5.72,9.01,18.06,10.55,22.84,20.93c1.63,3.54,2.76,7.34,4.94,10.56 c5.55,8.18,16.27,10.68,25.98,12.54c4.83,0.92,10.14,1.84,15.01,0.69c6.44-1.53,7.05-5.27,9.33-10.9 c4.9-12.12,9.53-24.46,11.93-37.36c2.39-12.85,2.51-26.01,2.54-39.09c0.03-14.25-0.06-28.59-2.73-42.58 c-2.32-12.16-3.86-25.11-10.75-35.38C208.91,87,194.01,87.42,183.39,91.78z" fill="#fff599"/></g><g id="change1_2"><path d="M241.6,91.78c2.3,0.94,4.4,2.07,6.17,3.33c12.61,8.95,27.72,15.39,37.06,28.44 c7.82,10.93,10.66,25.28,7.61,38.37c-1.26,5.41-3.47,10.58-4.53,16.03c-0.92,4.71-0.96,9.6-0.12,14.33 c1.48,8.39,5.54,17.64,0.97,24.84c-5.71,9.01-18.06,10.55-22.84,20.93c-1.63,3.54-2.76,7.34-4.94,10.56 c-5.55,8.18-16.27,10.68-25.98,12.54c-4.83,0.92-10.14,1.84-15.01,0.69c-6.44-1.53-7.05-5.27-9.33-10.9 c-4.9-12.12-9.53-24.46-11.93-37.36c-2.39-12.85-2.51-26.01-2.54-39.09c-0.03-14.25,0.06-28.59,2.73-42.58 c2.32-12.16,3.86-25.11,10.75-35.38C216.08,87,230.99,87.42,241.6,91.78z" fill="#fff599"/></g><g id="change2_3"><path d="M156.09,170.46c-1.67-1.83-4.25-2.7-5.69-0.19c-2.08,3.62-1.87,8.45-1.56,12.45 c0.25,3.23,0.65,6.47,1.49,9.61c0.73,2.72,1.73,6.45,4.15,8.15c0.55,0.39,1.31,0.77,2,0.91c0.38,0.08,2.7,0.12,1.92-0.88" fill="#fbcb98"/></g><g id="change2_1"><path d="M268.92,170.46c1.67-1.83,4.25-2.7,5.69-0.19c2.08,3.62,1.87,8.45,1.56,12.45 c-0.25,3.23-0.65,6.47-1.49,9.61c-0.73,2.72-1.73,6.45-4.15,8.15c-0.55,0.39-1.31,0.77-2,0.91c-0.38,0.08-2.7,0.12-1.92-0.88" fill="#fbcb98"/></g><g id="change3_1"><path d="M338.19,336.38c0.66-0.74,1.33-1.48,1.97-2.23c-7.59-19.4-23.71-34.88-44.51-41.26l-33.37-12.32 c-13.41-4.39-14.12-12.77-14.12-26.87v-29.96h-71.12v29.98c0,14.1,0.61,21.5-12.78,25.9l-34.65,13.31 c-20.81,6.35-36.95,21.83-44.57,41.23c0.64,0.75,1.3,1.48,1.96,2.22H338.19z" fill="#ecc090"/></g><g id="change4_1"><path d="M338.19,336.38c0.66-0.74,1.32-1.48,1.97-2.23c-7.59-19.4-23.71-34.88-44.51-41.26l-33.37-12.32 c-2.92-0.96-5.23-2.12-7.06-3.48c-0.58,0.35-1.27,0.84-2.03,1.46c-23.74,19-57.83,17.52-80.02-3.26 c-0.14-0.13-0.28-0.26-0.41-0.38c-1.88,1.88-4.6,3.43-8.5,4.72l-34.65,13.31c-20.81,6.35-36.95,21.83-44.57,41.23 c0.64,0.75,1.3,1.48,1.96,2.22H338.19z" fill="#fff"/></g><g id="change5_3"><path d="M152.32,336.38c0.51-16.75-2.86-33.36-11.12-47.9l-11.59,4.45c-20.81,6.35-36.95,21.83-44.57,41.23 c0.64,0.75,1.3,1.48,1.96,2.22H152.32z" fill="#092838"/></g><g id="change5_1"><path d="M338.19,336.38c0.66-0.74,1.32-1.48,1.96-2.23c-7.59-19.4-23.71-34.88-44.51-41.26l-4.39-1.62 c-6.03,14.51-8.19,29.77-7.63,45.12H338.19z" fill="#092838"/></g><g id="change2_2"><path d="M269.21,164.36c-0.14-40.16-24.72-69-56.5-69c-0.02,0-0.04,0-0.06,0c-0.02,0-0.04,0-0.06,0 c-31.78,0-56.36,28.84-56.5,69c-0.07,18.31,0.56,30.37,2.43,43.65c5.79,41.31,43.81,52.89,54.08,52.89 c12.58,0,48.41-11.58,54.2-52.89C268.65,194.73,269.28,182.67,269.21,164.36z" fill="#fbcb98"/></g><g id="change6_1"><path d="M269.21,164.36c-0.06-17.97-5.03-33.65-13.33-45.52c-1.97,4.5-3.97,8.99-6.09,13.43 c0.15,12.38,0.18,26.13,8.24,36.17c4,4.98,8.76,8.58,10.25,15.17c0.28,1.23,0.29,2.63,0.21,4.1c0.1-0.13,0.19-0.27,0.28-0.41 C269.11,180.55,269.25,173.18,269.21,164.36z" fill="#472312"/></g><g id="change1_3"><path d="M155.92,177.91c-0.08,4.34-0.18,8.68-0.27,13.05c-0.05,2.32,0.69,5.48,3.01,5.41 c1.18-0.04,2.11-1.01,2.76-1.99c4.04-6.09,3.52-15.63,10.05-18.92c2.64-1.33,5.78-1.16,8.61-2.03 c5.29-1.63,8.79-6.62,11.27-11.57c4.42-8.82,6.95-18.57,7.38-28.42c6.69,18.03,22.4,31.03,38.2,42 c4.94,3.43,9.95,6.75,15.03,9.96c3.77,2.38,8,4.79,12.4,4.12c1.84-0.28,3.7-1.21,4.6-2.84c0.6-1.09,0.72-2.38,0.83-3.62 c1.02-11.83,3.37-23.25,0.99-34.93c-1.89-9.27-5.07-17.81-8.67-26.49c-7.22-13.56-24.48-26.88-40.43-27.71 c-15.59-0.81-32.59,1.58-44.82,11.46c-20.15,16.27-20.67,34.36-20.76,58.99C156.07,168.91,156.01,173.41,155.92,177.91z" fill="#fff599"/></g><g id="change5_2"><path d="M164.25,279.62l8.91-4.33c0,0,17.3,16.39,39.43,16.55s35.96-9.49,42.62-14.74l7.06,3.48 c0,0-11.72,23.1-48.55,21.35S164.25,279.62,164.25,279.62z" fill="#092838"/></g></g></svg>