<?xml version="1.0" encoding="UTF-8"?><svg xmlns="http://www.w3.org/2000/svg" xmlns:xlink="http://www.w3.org/1999/xlink" height="255.1" preserveAspectRatio="xMidYMid meet" version="1.0" viewBox="84.8 85.0 255.7 255.1" width="255.7" zoomAndPan="magnify"><g><g id="change1_1"><path d="M339.88,212.6c0,31.7-11.58,60.72-30.72,83.03c-1.73,2.02-3.53,3.98-5.39,5.89 c-4.74,4.88-9.88,9.39-15.35,13.45c-21.24,15.83-47.57,25.19-76.09,25.19c-0.39,0-0.77,0-1.16-0.01 c-17.8-0.15-34.72-3.96-50.07-10.7c-8.88-3.89-17.22-8.76-24.9-14.48c-5.56-4.15-10.77-8.73-15.58-13.71 c-1.77-1.82-3.48-3.7-5.13-5.62c-19.14-22.31-30.73-51.33-30.73-83.04c0-70.45,57.12-127.56,127.57-127.56 c48.34,0,90.4,26.9,112.04,66.55c7.18,13.15,12.1,27.7,14.27,43.14C339.46,200.57,339.88,206.54,339.88,212.6z" fill="#c8c4e3"/></g><g id="change2_1"><path d="M340.44,212.6c0,31.7-11.58,60.72-30.72,83.03c-1.73,2.02-3.53,3.98-5.39,5.89 c-4.74,4.88-9.88,9.39-15.35,13.45c-21.24,15.83-47.57,25.19-76.09,25.19c-0.39,0-0.77,0-1.16-0.01l-15.44-27.43l54.65-185.14 l88.26,67.15C340.02,200.57,340.44,206.54,340.44,212.6z" fill="#9492c7"/></g><g id="change3_2"><path d="M297.49,176.01c0.51-5.89-3.19-11.89-8.67-14.1c3.44-2.85,4.44-8.25,2.25-12.14 c-2.37-4.24-7.06-5.19-11.48-4.73c2.08-4.86,1.55-10.53-2.63-14.24c-4.02-3.58-10-4.35-15.2-2.99c1.8-3.97-0.72-8.97-4.67-10.82 c-3.94-1.85-8.73-1.05-12.55,1.04c1.06-4.88-4.08-9.32-9.07-9.5c-2.89-0.11-5.88,0.8-8.5,2.04c0.74-3.04-1.09-6.29-3.75-7.94 c-2.66-1.65-5.94-1.97-9.06-1.73c-1.98,0.15-4,0.53-5.69,1.58c-1.69,1.05-2.99,2.89-2.95,4.88c-0.82-3.13-5.96-4.2-8.72-4.61 c-3.75-0.56-7.72,0.19-10.95,2.19c-3.67,2.27-6.38,6.85-5.22,10.86c-3.59-1.64-7.82-2.12-11.36-0.46 c-3.94,1.85-6.46,6.85-4.67,10.82c-5.21-1.35-11.19-0.58-15.2,2.99c-4.18,3.72-4.71,9.38-2.63,14.24 c-4.43-0.46-9.11,0.49-11.48,4.73c-2.18,3.9-1.18,9.29,2.25,12.14c-5.48,2.2-9.18,8.21-8.67,14.1 c0.51,5.89,5.17,11.17,10.95,12.41c-4.95,1.9-8.18,7.47-7.38,12.71s5.57,9.58,10.86,9.9c-3.44,4.19-3.74,10.67-0.7,15.17 c3.04,4.49,9.17,6.63,14.34,4.99c-1.8,5.08,0.21,11.26,4.67,14.3c4.46,3.04,10.94,2.66,15.01-0.88c-0.43,3.89,3.21,7.27,7.06,8 c3.84,0.72,7.76-0.5,11.48-1.7c-0.34,0.11,6.31,4.17,7.56,4.32c2.91,0.34,6.67-0.35,8.86-2.45c0.36-0.35,0.7-0.74,1.02-1.16 c0.63,1.06,1.34,2.02,2.16,2.81c2.19,2.1,5.95,2.79,8.86,2.45c1.25-0.15,7.91-4.21,7.56-4.32c3.72,1.2,7.64,2.42,11.48,1.7 c3.85-0.72,7.49-4.11,7.06-8c4.07,3.54,10.56,3.92,15.01,0.88s6.47-9.21,4.67-14.3c5.17,1.63,11.3-0.5,14.34-4.99 c3.04-4.49,2.74-10.97-0.7-15.17c5.29-0.32,10.05-4.67,10.86-9.9c0.81-5.23-2.43-10.81-7.38-12.71 C292.32,187.19,296.99,181.9,297.49,176.01z" fill="#5d281b"/></g><g id="change4_1"><path d="M270.99,268.72l-30.67-9.99c-5.66-1.84-9.49-7.12-9.49-13.07v-23.53h-37.15v23.82 c0,6-3.89,11.3-9.61,13.11l-30.72,9.7c-15.91,4.85-27.96,17.23-32.74,32.51c4.81,4.98,10.02,9.56,15.58,13.71 c7.68,5.72,16.02,10.59,24.9,14.48c15.68,6.89,33,10.71,51.23,10.71c28.52,0,54.85-9.36,76.09-25.19 c5.47-4.06,10.61-8.57,15.35-13.45C299.06,286.11,286.98,273.62,270.99,268.72z" fill="#aa7648"/></g><g id="change5_1"><path d="M272.54,269.25c-0.52-0.18-1.02-0.37-1.55-0.53l-13.31-4.34c-5.95,18.85-43.66,62.86-43.66,62.86 s-40.16-41.11-46.09-63.09l-14.57,4.6c-0.36,0.11-0.7,0.24-1.05,0.36c3.34,4.08,5.52,9.44,6.93,14.12 c2.88,9.57,2.1,19.91-1.17,29.27c-1.54,4.41-3.51,8.61-5.78,12.66c2.88,1.54,5.81,2.97,8.82,4.29 c15.68,6.89,33,10.71,51.23,10.71c21.4,0,41.57-5.27,59.28-14.59C265.18,307.23,264.42,287.38,272.54,269.25z" fill="#ffdd3c"/></g><g id="change4_3"><path d="M252.33,169.44c-0.1-28.45-17.51-48.88-40.03-48.88c-0.01,0-0.03,0-0.04,0s-0.03,0-0.04,0 c-22.51,0-39.93,20.43-40.03,48.88c-0.05,12.97,0.31,16.2,1.63,25.61c4.1,29.26,31.13,42.78,38.4,42.78 c8.91,0,34.17-13.52,38.27-42.78C251.81,185.64,252.38,182.41,252.33,169.44z" fill="#aa7648"/></g><g id="change3_1"><path d="M182.74,176.26c0.65-2.62,0.49-5.41,0.33-8.12c2.06,3.86,8.38,3.07,11-0.43s2.56-8.27,2.22-12.63 c4.28-0.28,8-4.19,8.08-8.47c-0.37,3.52,1.42,7.18,4.43,9.05c3.01,1.87,7.08,1.86,10.08-0.03c-1,3.61,0.27,7.74,3.11,10.17 c2.85,2.43,7.12,3.03,10.53,1.48c1.03,7.07,9.29,12.08,16.04,9.74c-1.26,3.96,1.37,8.7,5.4,9.73c-0.01,0,0.05-19.2-0.06-21.64 c-2.29-51.72-42.11-48.03-42.13-48.03c-22.51,0-41.24,18.25-41.34,46.7c-0.02,4.74-2.27,20.22,5.66,19.34 c3.04-0.33,5.42-2.98,6.39-5.89C182.57,176.91,182.66,176.58,182.74,176.26z" fill="#5d281b"/></g><g id="change4_4"><path d="M172.19,173.77c-1.19-1.29-3.01-1.92-4.03-0.13c-1.48,2.56-1.32,5.99-1.11,8.82 c0.17,2.29,0.46,4.59,1.06,6.81c0.52,1.93,1.23,4.57,2.94,5.77c0.39,0.27,0.93,0.54,1.42,0.65c0.27,0.06,1.91,0.09,1.36-0.63" fill="#aa7648"/></g><g id="change4_2"><path d="M252.12,173.77c1.19-1.29,3.01-1.92,4.03-0.13c1.48,2.56,1.32,5.99,1.11,8.82 c-0.17,2.29-0.46,4.59-1.06,6.81c-0.52,1.93-1.23,4.57-2.94,5.77c-0.39,0.27-0.93,0.54-1.42,0.65 c-0.27,0.06-1.91,0.09-1.36-0.63" fill="#aa7648"/></g></g></svg>