<?xml version="1.0" encoding="UTF-8"?><svg xmlns="http://www.w3.org/2000/svg" xmlns:xlink="http://www.w3.org/1999/xlink" height="255.1" preserveAspectRatio="xMidYMid meet" version="1.0" viewBox="84.8 85.0 255.7 255.1" width="255.7" zoomAndPan="magnify"><g><g id="change1_1"><path d="M339.88,212.6c0,31.7-11.58,60.72-30.72,83.03c-1.73,2.02-3.53,3.98-5.39,5.89 c-4.74,4.88-9.88,9.39-15.35,13.45c-21.24,15.83-47.57,25.19-76.09,25.19c-0.39,0-0.77,0-1.16-0.01 c-17.8-0.15-34.72-3.96-50.07-10.7c-8.88-3.89-17.22-8.76-24.9-14.48c-5.56-4.15-10.77-8.73-15.58-13.71 c-1.77-1.82-3.48-3.7-5.13-5.62c-19.14-22.31-30.73-51.33-30.73-83.04c0-70.45,57.12-127.56,127.57-127.56 c48.34,0,90.4,26.9,112.04,66.55c7.18,13.15,12.1,27.7,14.27,43.14C339.46,200.57,339.88,206.54,339.88,212.6z" fill="#ffdd3c"/></g><g id="change2_1"><path d="M340.44,212.6c0,31.7-11.58,60.72-30.72,83.03c-1.73,2.02-3.53,3.98-5.39,5.89 c-4.74,4.88-9.88,9.39-15.35,13.45c-21.24,15.83-47.57,25.19-76.09,25.19c-0.39,0-0.77,0-1.16-0.01l-15.44-27.43l54.65-185.14 l88.26,67.15C340.02,200.57,340.44,206.54,340.44,212.6z" fill="#fcc33d"/></g><g id="change3_1"><path d="M282.15,190.38c-0.13-0.11-0.27-0.22-0.41-0.33c-5.04-3.93-12.75-5.91-13.85-12.16 c-1.18-6.65,6.5-11.65,7.63-18.31c0.71-4.14-1.25-8.28-3.67-11.72c-3.65-5.2-8.35-9.14-13.73-12.41 c-4.88-2.96-7.59-10.39-11.56-14.7c-4.1-4.45-9.24-8.15-15.13-9.56s-12.57-0.26-17,3.87c-0.44,0.41-0.94,0.88-1.54,0.84 c-0.4-0.03-0.75-0.28-1.07-0.52c-7.71-5.56-18.83-5.88-26.85-0.78c-2.71,1.73-5.04,3.98-7.35,6.21 c-6.4,6.19-12.8,12.38-18.9,18.86c-4.65,4.94-10.86,12.52-9.6,19.91c1.14,6.65,8.81,11.66,7.63,18.31 c-1.11,6.25-8.81,8.23-13.85,12.16c-0.14,0.11-0.27,0.22-0.41,0.33c-5.85,4.83-7.42,14.09-3.5,20.59 c3.3,5.48,9.76,8.81,12.01,14.8c2.72,7.25-1.74,14.97-5.02,21.98c-3.28,7.02-4.78,16.84,1.59,21.24c2.2,1.52,4.94,2.02,7.26,3.35 c8.16,4.68,7.61,16.32,7.2,25.72c-0.08,1.86-0.08,3.85,0.91,5.43c0.96,1.52,2.68,2.39,4.37,3c14.64,5.33,31.66-3.66,39.46-17.15 c2.18-3.78,3.69-7.59,4.69-11.45c2.03,3.88,4.21,7.7,6.39,11.45c7.8,13.49,24.82,22.48,39.46,17.15c1.69-0.62,3.41-1.48,4.37-3 c0.99-1.58,0.99-3.57,0.91-5.43c-0.41-9.4-0.97-21.04,7.2-25.72c2.32-1.33,5.06-1.83,7.26-3.35c6.37-4.4,4.87-14.23,1.59-21.24 c-3.28-7.02-7.74-14.73-5.02-21.98c2.25-5.99,8.71-9.32,12.01-14.8C289.57,204.48,288,195.22,282.15,190.38z" fill="#a66a43"/></g><g id="change4_1"><path d="M270.99,268.72l-30.67-9.99c-5.66-1.84-9.49-7.12-9.49-13.07v-23.53h-37.15v23.82 c0,6-3.89,11.3-9.61,13.11l-30.72,9.7c-15.91,4.85-27.96,17.23-32.74,32.51c4.81,4.98,10.02,9.56,15.58,13.71 c7.68,5.72,16.02,10.59,24.9,14.48c15.68,6.89,33,10.71,51.23,10.71c28.52,0,54.85-9.36,76.09-25.19 c5.47-4.06,10.61-8.57,15.35-13.45C299.06,286.11,286.98,273.62,270.99,268.72z" fill="#eec191"/></g><g id="change5_1"><path d="M270.99,268.72l-30.67-9.99c-5.66-1.84-9.49-7.12-9.49-13.07v-4.79c-11.84,3.31-25.53,2.83-37.15-0.94 v6.02c0,6-3.89,11.3-9.61,13.11l-30.72,9.7c-15.91,4.85-27.96,17.23-32.74,32.51c4.81,4.98,10.02,9.56,15.58,13.71 c7.68,5.72,16.02,10.59,24.9,14.48c15.68,6.89,33,10.71,51.23,10.71c28.52,0,54.85-9.36,76.09-25.19 c5.47-4.06,10.61-8.57,15.35-13.45C299.06,286.11,286.98,273.62,270.99,268.72z" fill="#092838"/></g><g id="change6_1"><path d="M252.33,169.44c-0.1-28.45-17.51-48.88-40.03-48.88c-0.01,0-0.03,0-0.04,0s-0.03,0-0.04,0 c-22.51,0-39.93,20.43-40.03,48.88c-0.05,12.97,0.31,16.2,1.63,25.61c4.1,29.26,31.13,42.78,38.4,42.78 c8.91,0,34.17-13.52,38.27-42.78C251.81,185.64,252.38,182.41,252.33,169.44z" fill="#fbcb98"/></g><g id="change3_2"><path d="M236.93,179.92c0.31-1.95,1.25-8.17,3.22-9.23c2.92-1.57,5.49,4.94,6.21,6.95 c1.37,3.83,2.56,7.72,3.59,11.66c0.16,0.6,0.74,1.36,1.21,0.96c0.14-0.12,0.2-0.31,0.25-0.49c0.99-3.73,1.65-7.36,1.65-11.18 c0-4.5,1.04-8.93,0.84-13.49c-2.29-51.72-42.11-48.03-42.13-48.03c-22.51,0-41.24,18.25-41.34,46.7 c-0.02,4.95,0.43,9.95-0.19,14.82c-0.33,2.57,0.33,5.38,0.85,7.9c0.29,1.42,0.63,2.83,1.02,4.23c0.24,0.84,1.38,2.96,1.2,3.77 c1.13-5.07,2.26-10.14,3.39-15.21c0.57-2.57,1.19-5.24,2.84-7.29c0.34-0.43,0.75-0.84,1.28-0.98c0.8-0.22,1.65,0.25,2.13,0.93 c0.48,0.67,0.65,1.51,0.8,2.32c0.38,2.14,0.6,4.31,0.68,6.48c8.83,0.08,17.72-0.01,26.58-0.01 C217.63,180.71,236.75,181.12,236.93,179.92z" fill="#a66a43"/></g><g id="change6_3"><path d="M172.19,173.77c-1.19-1.29-3.01-1.92-4.03-0.13c-1.48,2.56-1.32,5.99-1.11,8.82 c0.17,2.29,0.46,4.59,1.06,6.81c0.52,1.93,1.23,4.57,2.94,5.77c0.39,0.27,0.93,0.54,1.42,0.65c0.27,0.06,1.91,0.09,1.36-0.63" fill="#fbcb98"/></g><g id="change6_2"><path d="M252.12,173.77c1.19-1.29,3.01-1.92,4.03-0.13c1.48,2.56,1.32,5.99,1.11,8.82 c-0.17,2.29-0.46,4.59-1.06,6.81c-0.52,1.93-1.23,4.57-2.94,5.77c-0.39,0.27-0.93,0.54-1.42,0.65 c-0.27,0.06-1.91,0.09-1.36-0.63" fill="#fbcb98"/></g></g></svg>