<?xml version="1.0" encoding="UTF-8"?><svg xmlns="http://www.w3.org/2000/svg" xmlns:xlink="http://www.w3.org/1999/xlink" height="255.1" preserveAspectRatio="xMidYMid meet" version="1.0" viewBox="84.8 85.0 255.7 255.1" width="255.7" zoomAndPan="magnify"><g><g id="change1_1"><path d="M339.88,212.6c0,31.7-11.58,60.72-30.72,83.03c-1.73,2.02-3.53,3.98-5.39,5.89 c-4.74,4.88-9.88,9.39-15.35,13.45c-21.24,15.83-47.57,25.19-76.09,25.19c-0.39,0-0.77,0-1.16-0.01 c-17.8-0.15-34.72-3.96-50.07-10.7c-8.88-3.89-17.22-8.76-24.9-14.48c-5.56-4.15-10.77-8.73-15.58-13.71 c-1.77-1.82-3.48-3.7-5.13-5.62c-19.14-22.31-30.73-51.33-30.73-83.04c0-70.45,57.12-127.56,127.57-127.56 c48.34,0,90.4,26.9,112.04,66.55c7.18,13.15,12.1,27.7,14.27,43.14C339.46,200.57,339.88,206.54,339.88,212.6z" fill="#98c662"/></g><g id="change2_1"><path d="M340.44,212.6c0,31.7-11.58,60.72-30.72,83.03c-1.73,2.02-3.53,3.98-5.39,5.89 c-4.74,4.88-9.88,9.39-15.35,13.45c-21.24,15.83-47.57,25.19-76.09,25.19c-0.39,0-0.77,0-1.16-0.01l-15.44-27.43l54.65-185.14 l88.26,67.15C340.02,200.57,340.44,206.54,340.44,212.6z" fill="#58b465"/></g><g id="change3_2"><path d="M262.73,188.42c4.03-19.41,3.16-40.38-10.27-55.6c-4.35-4.93-9.75-8.66-15.46-11.51 c-12.11-6.05-25.18-7.16-38.13-4.08c-12.47,2.97-21.39,10.47-27.84,22.66c-13.1,24.78-9.17,61.51,7.72,82.96 c6.33,8.04,15.24,13.31,24.58,16.2c5.37,1.66,11.04,2.58,16.53,1.48c3.68-0.74,7.16-2.38,10.46-4.32 c16.01-9.42,27.7-26.72,32.01-45.91C262.46,189.67,262.6,189.05,262.73,188.42z" fill="#092838"/></g><g id="change4_1"><path d="M270.99,268.72l-30.67-9.99c-5.66-1.84-9.49-7.12-9.49-13.07v-23.53h-37.15v23.82 c0,6-3.89,11.3-9.61,13.11l-30.72,9.7c-15.91,4.85-27.96,17.23-32.74,32.51c4.81,4.98,10.02,9.56,15.58,13.71 c7.68,5.72,16.02,10.59,24.9,14.48c15.68,6.89,33,10.71,51.23,10.71c28.52,0,54.85-9.36,76.09-25.19 c5.47-4.06,10.61-8.57,15.35-13.45C299.06,286.11,286.98,273.62,270.99,268.72z" fill="#ecc090"/></g><g id="change5_1"><path d="M288.27,278.13l-74.11,26.6l-78.08-26.6c-7.23,6.05-12.63,14.07-15.46,23.13 c4.81,4.98,10.02,9.56,15.58,13.71c7.68,5.72,16.02,10.59,24.9,14.48c15.68,6.89,33,10.71,51.23,10.71 c28.52,0,54.85-9.36,76.09-25.19c5.47-4.06,10.61-8.57,15.35-13.45C300.97,292.36,295.55,284.25,288.27,278.13z" fill="#fff599"/></g><g id="change6_2"><path d="M252.33,169.44c-0.1-28.45-17.51-48.88-40.03-48.88c-0.01,0-0.03,0-0.04,0s-0.03,0-0.04,0 c-22.51,0-39.93,20.43-40.03,48.88c-0.05,12.97,0.31,16.2,1.63,25.61c4.1,29.26,31.13,42.78,38.4,42.78 c8.91,0,34.17-13.52,38.27-42.78C251.81,185.64,252.38,182.41,252.33,169.44z" fill="#fbcb98"/></g><g id="change6_1"><path d="M172.19,173.77c-1.19-1.29-3.01-1.92-4.03-0.13c-1.48,2.56-1.32,5.99-1.11,8.82 c0.17,2.29,0.46,4.59,1.06,6.81c0.52,1.93,1.23,4.57,2.94,5.77c0.39,0.27,0.93,0.54,1.42,0.65c0.27,0.06,1.91,0.09,1.36-0.63" fill="#fbcb98"/></g><g id="change6_3"><path d="M252.12,173.77c1.19-1.29,3.01-1.92,4.03-0.13c1.48,2.56,1.32,5.99,1.11,8.82 c-0.17,2.29-0.46,4.59-1.06,6.81c-0.52,1.93-1.23,4.57-2.94,5.77c-0.39,0.27-0.93,0.54-1.42,0.65 c-0.27,0.06-1.91,0.09-1.36-0.63" fill="#fbcb98"/></g><g id="change3_4"><path d="M231.15,189.57c2.05,0.58,4.17,0.93,6.37,0.98c0.05-1.8,0.11-3.61,0.16-5.41 c7.26,3.08,11.03,13.05,12.44,20.19c-0.13-0.64,2.58-4.1,2.95-4.94c0.87-1.94,1.28-3.98,1.96-5.98 c1.43-4.24,2.52-8.35,3.18-12.84c1.41-9.7,1.42-19.67-0.8-29.25c-3.1-13.36-16.28-27.24-29.36-32.47 c-5.28-2.11-10.66-2.78-16.28-2.78c-2.07,0-4.13,0.14-6.18,0.45c-16.17,2.45-27.52,15.15-32.72,30.04 c-2.68,7.66-3.88,15.84-3.69,23.94c0.14,5.79,0.44,17.59,4.86,21.84c3.29-6.02-1.55-12.49,3.66-17.64 c3.15-3.11,6.99-5.4,10.39-8.23c2.92-2.42,4.31-6.32,7.02-8.59c4.89,4,8.86,9.95,13.26,14.56 C214.83,180.24,222.36,187.08,231.15,189.57z" fill="#092838"/></g><g id="change3_1"><path d="M252.18,218.99c-1.06,3.82-1.98,7.75-1.77,11.7c0.27,5.14,2.41,9.99,4.71,14.6 c4.27,8.55,9.23,16.81,12.37,25.84c1.46,4.2,2.51,8.59,2.42,13.03c-0.19,9.34-5.42,17.92-11.85,24.7 c-6.43,6.78-14.13,12.23-20.89,18.69c4.42-10.53,7.62-21.57,9.53-32.83c0.52-3.08,0.94-6.27,0.12-9.29 c-1.28-4.72-5.3-8.08-8.47-11.8c-9.97-11.69-12-29.55-4.89-43.18c2.62-5.03,6.3-9.41,9.73-13.91c5.12-6.72,9.77-13.8,13.9-21.17 c-0.42,0.76,0.93,4.71,0.83,5.86c-0.15,1.62-0.74,2.9-1.31,4.43C254.95,210.05,253.44,214.47,252.18,218.99z" fill="#092838"/></g><g id="change3_3"><path d="M173.34,219.33c1.06,3.82,1.98,7.75,1.77,11.7c-0.27,5.14-2.41,9.99-4.71,14.6 c-4.27,8.55-9.23,16.81-12.37,25.84c-1.46,4.2-2.51,8.59-2.42,13.03c0.19,9.34,5.42,17.92,11.85,24.7 c6.43,6.78,14.13,12.23,20.89,18.69c-4.42-10.53-7.62-21.57-9.53-32.83c-0.52-3.08-0.94-6.27-0.12-9.29 c1.28-4.72,5.3-8.08,8.47-11.8c9.97-11.69,12-29.55,4.89-43.18c-2.62-5.03-6.3-9.41-9.73-13.91c-5.12-6.72-9.77-13.8-13.9-21.17 c0.42,0.76-0.93,4.71-0.83,5.86c0.15,1.62,0.74,2.9,1.31,4.43C170.57,210.39,172.08,214.81,173.34,219.33z" fill="#092838"/></g></g></svg>