<?xml version="1.0" encoding="UTF-8"?><svg xmlns="http://www.w3.org/2000/svg" xmlns:xlink="http://www.w3.org/1999/xlink" clip-rule="evenodd" fill-rule="evenodd" height="14505.1" image-rendering="optimizeQuality" preserveAspectRatio="xMidYMid meet" shape-rendering="geometricPrecision" text-rendering="geometricPrecision" version="1.0" viewBox="5506.5 10577.4 17562.0 14505.1" width="17562.0" zoomAndPan="magnify"><g><g id="change1_1"><path d="M6922.79 12959.04l339.93 0 0 -1189.72c0,-124.66 101.92,-226.57 226.54,-226.57l2492.74 0c124.66,0 226.58,101.91 226.58,226.57l0 1189.72 862.29 0c293.38,-939.5 629.46,-1939.68 1640.43,-2321.02 969.82,0 1939.64,0 2909.46,0 1119.57,-60.64 1607.93,1463.78 1886.11,2321.02l4145.34 0c779,0 1416.29,637.3 1416.29,1416.3l0 9290.85c0,779 -637.29,1416.3 -1416.29,1416.3l-14729.42 0c-779,0 -1416.3,-637.3 -1416.3,-1416.3l0 -9290.85c0,-779 637.3,-1416.3 1416.3,-1416.3zm2605.97 -1019.75l0 1019.75 226.62 0 0 -1019.75 -226.62 0zm-226.58 1019.75l0 -1019.75 -226.62 0 0 1019.75 226.62 0zm-453.2 0l0 -1019.75 -226.62 0 0 1019.75 226.62 0zm-453.2 0l0 -1019.75 -226.66 0 0 1019.75 226.66 0zm-453.24 0l0 -1019.75 -226.62 0 0 1019.75 226.62 0zm4872.01 -1754.51c1888.38,0 2832.59,0 2832.59,0 453.24,0 862.5,516.49 1246.33,1699.57 0,0 -1737.3,0 -5211.94,0 300.23,-961.43 677.89,-1527.98 1133.02,-1699.57zm-5891.76 2321.02l14729.46 0c467.42,0 849.79,382.37 849.79,849.79l0 9290.85c0,467.42 -382.37,849.79 -849.79,849.79l-14729.46 0c-467.42,0 -849.79,-382.37 -849.79,-849.79l0 -9290.85c0,-467.42 382.37,-849.79 849.79,-849.79z"/><path d="M18366.42 14148.76l2266.08 0 0 1132.97 -2266.08 0 0 -1132.97zm226.62 226.58l1812.84 0 0 679.82 -1812.84 0 0 -679.82z"/><path d="M16536.81 15961.55l2282.85 0 0 226.62 -1980.22 0c-97.1,-80.19 -198.09,-155.82 -302.63,-226.62z"/><path d="M6016.35 15961.55l6078.5 0c-104.54,70.8 -205.54,146.43 -302.63,226.62l-5775.87 0 0 -226.62z"/><path d="M19952.66 15961.55H21765.5V16188.17H19952.66z"/><path d="M16604.29 22486.33l5104.57 0 0 330.08 -5662.7 0c195.55,-94.99 382.15,-205.52 558.13,-330.08z"/><path d="M6073 22486.33l5954.37 0c175.98,124.56 362.57,235.09 558.12,330.08l-6512.49 0 0 -330.08z"/><path d="M14315.8 16669.68c1423.67,0 2577.67,1154 2577.67,2577.62 0,1423.66 -1154,2577.66 -2577.67,2577.66 -1423.61,0 -2577.62,-1154 -2577.62,-2577.66 0,-1423.62 1154.01,-2577.62 2577.62,-2577.62zm0 339.89c1235.93,0 2237.78,1001.85 2237.78,2237.73 0,1235.92 -1001.85,2237.78 -2237.78,2237.78 -1235.88,0 -2237.73,-1001.86 -2237.73,-2237.78 0,-1235.88 1001.85,-2237.73 2237.73,-2237.73z"/><path d="M14315.8 15281.73c2190.25,0 3965.64,1775.39 3965.64,3965.57 0,2190.25 -1775.39,3965.63 -3965.64,3965.63 -2190.18,0 -3965.56,-1775.38 -3965.56,-3965.63 0,-2190.18 1775.38,-3965.57 3965.56,-3965.57zm0 522.91c1901.42,0 3442.73,1541.31 3442.73,3442.66 0,1901.42 -1541.31,3442.73 -3442.73,3442.73 -1901.35,0 -3442.66,-1541.31 -3442.66,-3442.73 0,-1901.35 1541.31,-3442.66 3442.66,-3442.66z"/><path d="M15250.59 17952.2c355.49,0 643.64,288.15 643.64,643.62 0,355.49 -288.15,643.64 -643.64,643.64 -355.48,0 -643.63,-288.15 -643.63,-643.64 0,-355.47 288.15,-643.62 643.63,-643.62zm0 84.87c308.61,0 558.77,250.16 558.77,558.75 0,308.61 -250.16,558.77 -558.77,558.77 -308.6,0 -558.76,-250.16 -558.76,-558.77 0,-308.59 250.16,-558.75 558.76,-558.75z"/></g></g></svg>